<?xml version="1.0" encoding="UTF-8"?>
<svg width="16px" height="16px" viewBox="0 0 16 16" version="1.1" xmlns="http://www.w3.org/2000/svg" xmlns:xlink="http://www.w3.org/1999/xlink">
    <title>切片</title>
    <g id="页面-1" stroke="none" stroke-width="1"  opacity="0.85">
        <g id="0-1-1后台样式备份" transform="translate(-24.000000, -430.000000)">
            <g id="common_ic_banben_black" transform="translate(24.000000, 430.000000)">
                <rect id="矩形" opacity="0" x="0" y="0" width="16" height="16"></rect>
                <g id="编组" transform="translate(1.000000, 1.500000)" >
                    <path d="M12.7820362,0 L1.21714085,0 C0.545869998,0.00224294652 0.00225790613,0.542253373 0,1.20907676 L0,9.67424904 C0.00225790613,10.3410724 0.545869998,10.8810829 1.21714085,10.8833258 L6.39101812,10.8833258 L6.39101812,11.789929 L3.98718552,11.789929 C3.67820311,11.7888557 3.41103386,12.0037027 3.34775453,12.3041341 C3.3185254,12.4800352 3.36977221,12.6597224 3.48753693,12.7942545 C3.60530165,12.9287867 3.77731884,13.004152 3.95673642,12.9998232 L10.0128145,12.9998232 C10.3217969,13.0008965 10.5889661,12.7860496 10.6522455,12.4856182 C10.6814746,12.3097171 10.6302278,12.1300298 10.5124631,11.9954977 C10.3946984,11.8609655 10.2226812,11.7856003 10.0432636,11.789929 L7.6089819,11.789929 L7.6089819,10.8833258 L12.7828592,10.8833258 C13.45413,10.8810828 13.9977421,10.3410724 14,9.67424904 L14,1.20907676 C13.9977421,0.542253379 13.45413,0.0022429544 12.7828592,0 L12.7820362,0 Z M10.9559135,6.04947127 L8.94709617,6.04947127 L8.24676699,8.10547399 C8.21452727,8.18818569 8.13984294,8.24716023 8.05145323,8.25970368 C7.96306351,8.27224712 7.87474355,8.23640462 7.82047967,8.16596871 L5.62896779,5.14123307 L5.35492593,5.83692228 C5.31685597,5.95311913 5.20350038,6.02818883 5.08088408,6.01840641 L2.76922174,6.01840641 C2.46023934,6.01947965 2.19307009,5.80463274 2.12979074,5.50420135 C2.10056162,5.32830022 2.15180842,5.14861301 2.26957314,5.01408086 C2.38733787,4.8795487 2.55935505,4.80418343 2.73877264,4.80851215 L4.443099,4.80851215 L5.14342817,3.05498299 C5.1756679,2.97227129 5.25035222,2.91329675 5.33874194,2.90075331 C5.42713166,2.88820986 5.51545162,2.92405236 5.56971549,2.99448828 L7.70032919,5.89659948 L8.00482014,4.9899963 C8.03946878,4.86730906 8.15062774,4.7814249 8.27886199,4.77826479 L10.8958382,4.77826479 C11.2048206,4.77719155 11.4719899,4.99203848 11.5352692,5.29246986 C11.5940827,5.47222084 11.5607049,5.66918135 11.4458891,5.81989697 C11.3310734,5.97061259 11.1493279,6.05603872 10.9592053,6.04865377 L10.9559135,6.04947127 Z" id="形状"></path>
                </g>
            </g>
        </g>
    </g>
</svg>
