<?xml version="1.0" encoding="UTF-8"?>
<svg width="16px" height="16px" viewBox="0 0 16 16" version="1.1" xmlns="http://www.w3.org/2000/svg" xmlns:xlink="http://www.w3.org/1999/xlink">
    <title>切片</title>
    <g id="页面-1" stroke="none" stroke-width="1" >
        <g id="0-1-1后台样式备份" transform="translate(-24.000000, -130.000000)">
            <g id="common_ic_shangpin" transform="translate(24.000000, 130.000000)">
                <g id="common_ic_yonghu_blue"></g>
                <g id="编组" opacity="0.849999964" transform="translate(1.000000, 1.000000)" >
                    <path d="M11.872,7.7374926 L11.935,7.75172902 C11.935,7.75172902 12.061,7.80155648 12.341,7.96527527 C12.628,8.12899407 12.726,8.22153078 12.726,8.22153078 C12.824,8.30694928 12.88,8.46354986 12.866,8.59167762 L12.852,8.65574149 L12.817,8.75539641 C12.698,9.27502563 12.964,9.80889126 13.447,10.0082011 L13.552,10.0437921 L13.657,10.0651468 C13.783,10.0936196 13.902,10.2075109 13.951,10.3285205 L13.972,10.3925844 C13.972,10.3925844 13.993,10.5207121 14,10.8552679 L14,11.0474595 L13.986,11.232533 C13.979,11.2894786 13.979,11.3179515 13.979,11.3179515 C13.944,11.4531974 13.853,11.5670888 13.734,11.6240344 L13.671,11.645389 L13.573,11.6667437 C13.307,11.745044 13.083,11.9229992 12.95,12.1650183 C12.831,12.3714463 12.782,12.6134654 12.817,12.8483663 L12.838,12.9622576 L12.866,13.0690307 C12.901,13.1900403 12.866,13.3537591 12.782,13.4605322 L12.74,13.5103597 C12.74,13.5103597 12.642,13.5957782 12.355,13.7666152 L12.124,13.8947429 L11.949,13.9801614 C11.816,14.0228707 11.676,13.9943978 11.564,13.9160975 L11.515,13.8733883 L11.445,13.795088 C11.242,13.6028964 10.976,13.4961232 10.703,13.4961232 C10.458,13.4961232 10.234,13.5815418 10.052,13.7167877 L9.968,13.795088 L9.898,13.8733883 C9.8,13.9730432 9.66,14.0157525 9.527,13.9943978 L9.464,13.9801614 C9.464,13.9801614 9.366,13.9445704 9.142,13.8164426 L9.051,13.7666152 C8.918,13.6954331 8.785,13.6100146 8.666,13.5103597 C8.568,13.417823 8.512,13.2754588 8.526,13.1402128 L8.54,13.0761489 L8.568,12.976494 C8.631,12.7060021 8.589,12.4212738 8.456,12.1792547 C8.337,11.9728266 8.155,11.8091078 7.938,11.7165711 L7.833,11.6809801 L7.735,11.6596255 C7.602,11.6240344 7.497,11.5243795 7.441,11.3962518 L7.42,11.3321879 C7.42,11.3321879 7.399,11.2254147 7.399,10.9691592 L7.399,10.8623861 C7.399,10.5278303 7.42,10.3997026 7.42,10.3997026 C7.455,10.2644566 7.546,10.1505653 7.665,10.0936196 L7.728,10.072265 L7.833,10.0509104 C8.337,9.90142797 8.659,9.40315338 8.596,8.86928775 L8.575,8.75539641 L8.54,8.64862328 C8.505,8.51337732 8.54,8.37101315 8.624,8.26424003 L8.673,8.21441257 C8.673,8.21441257 8.771,8.12899407 9.058,7.95815706 L9.226,7.86562035 L9.345,7.80155648 C9.429,7.75884723 9.464,7.74461081 9.464,7.74461081 C9.597,7.70190156 9.737,7.73037439 9.849,7.80867469 L9.898,7.85138394 L9.968,7.92968423 C10.157,8.11475765 10.423,8.22864899 10.71,8.22864899 C10.955,8.22864899 11.179,8.14323048 11.361,8.00798452 L11.445,7.93680244 L11.522,7.85850214 C11.599,7.75884723 11.732,7.71613798 11.872,7.7374926 L11.872,7.7374926 Z M10.654,9.57399038 C9.94,9.57399038 9.359,10.1719199 9.359,10.9050954 C9.359,11.645389 9.94,12.2433186 10.654,12.2433186 C11.368,12.2433186 11.942,11.645389 11.949,10.9050954 C11.949,10.1719199 11.368,9.57399038 10.654,9.57399038 Z M5.894,1.28127752 C7.07,1.28127752 8.078,2.09275329 8.456,3.16048456 C8.54,3.45944931 8.75,3.63028632 9.044,3.63028632 C9.464,3.63028632 9.758,3.20319381 9.632,2.7761013 C9.128,1.15314977 7.616,0 5.894,0 C4.172,0 2.66,1.15314977 2.156,2.7761013 C2.03,3.20319381 2.324,3.63028632 2.744,3.63028632 C2.996,3.63028632 3.248,3.41674006 3.332,3.16048456 C3.71,2.09275329 4.718,1.28127752 5.894,1.28127752 Z" id="形状"></path>
                    <path d="M10.969,3.08218427 L0.826,3.08218427 C0.371,3.08218427 0,3.45944931 0,3.92213286 L0.63,12.7985388 C0.63,13.2612224 1.001,13.6384874 1.456,13.6384874 L7.588,13.6384874 C7.511,13.3751137 7.511,13.1046218 7.588,12.8412481 L7.602,12.7914206 C7.609,12.770066 7.602,12.7415932 7.588,12.7202385 L7.581,12.6988839 L7.413,12.6490564 C6.853,12.463983 6.468,11.9443538 6.44,11.3393061 L6.433,11.2467694 C6.426,11.1471145 6.426,11.0332231 6.426,10.9050954 L6.426,10.7840858 C6.426,10.6630763 6.433,10.5634214 6.44,10.4708847 L6.447,10.3925844 L6.461,10.2715748 C6.566,9.71635455 6.979,9.27502563 7.518,9.13977967 L7.553,9.13266146 C7.567,9.12554325 7.581,9.11842504 7.588,9.10418863 C7.595,9.08995221 7.602,9.06859758 7.609,9.07571579 L7.616,9.08995221 L7.588,8.99029729 C7.448,8.49914091 7.581,7.96527527 7.924,7.58801022 L8.008,7.50970993 C8.106,7.42429143 8.274,7.30328188 8.54,7.1466813 C8.722,7.03990817 8.869,6.96160788 8.981,6.91178042 L9.1,6.86195296 C9.625,6.66976133 10.213,6.81924371 10.598,7.2320998 L10.626,7.26769084 C10.633,7.27480905 10.647,7.28192726 10.661,7.28192726 C10.675,7.28192726 10.689,7.27480905 10.696,7.26769084 L10.689,7.27480905 L10.731,7.2320998 C10.941,6.99719892 11.27,6.76941625 11.655,6.86195296 L11.795,3.92925107 C11.788,3.45944931 11.417,3.08218427 10.969,3.08218427 L10.969,3.08218427 Z M2.919,6.24978703 C2.506,6.24978703 2.17,5.90811303 2.17,5.48102052 C2.17,5.05392801 2.506,4.71937221 2.919,4.71937221 C3.332,4.71937221 3.668,5.06104622 3.668,5.48102052 C3.668,5.90099482 3.332,6.24978703 2.919,6.24978703 Z M8.869,6.24978703 C8.456,6.24978703 8.12,5.90811303 8.12,5.48102052 C8.12,5.05392801 8.456,4.71937221 8.869,4.71937221 C9.282,4.71937221 9.618,5.06104622 9.618,5.48102052 C9.618,5.90099482 9.289,6.24978703 8.869,6.24978703 Z" id="形状"></path>
                </g>
            </g>
        </g>
    </g>
</svg>
