<?xml version="1.0" encoding="UTF-8"?>
<svg width="16px" height="16px" viewBox="0 0 16 16" version="1.1" xmlns="http://www.w3.org/2000/svg" xmlns:xlink="http://www.w3.org/1999/xlink">
    <title>切片</title>
    <g id="页面-1" stroke="none" stroke-width="1" opacity="0.85">
        <g id="0-1-1后台样式备份" transform="translate(-24.000000, -280.000000)">
            <g id="common_ic_tiku_black" transform="translate(24.000000, 280.000000)">
                <rect id="矩形"  opacity="0" x="0" y="0" width="16" height="16"></rect>
                <g id="编组" transform="translate(0.500000, 1.500000)" >
                    <path d="M15,8.43342282 C15,6.22255034 12.9213734,4.42174497 10.5843865,4.42174497 C8.10815345,4.42174497 6.16206241,6.22255034 6.16206241,8.43342282 C6.16206241,10.6495302 8.10647579,12.4433557 10.5843865,12.4433557 C11.1027849,12.4433557 11.6262163,12.3020134 12.1446147,12.167651 L13.5723073,13 L13.1814115,11.6179866 C14.2232412,10.7838926 15,9.67583893 15,8.43342282 Z M9.14998322,7.74067114 C8.89162286,7.74067114 8.6332625,7.46496644 8.6332625,7.18926174 C8.6332625,6.91530201 8.89162286,6.63959732 9.14998322,6.63959732 C9.54255676,6.63959732 9.80091712,6.91530201 9.80091712,7.18926174 C9.80091712,7.46496644 9.54255676,7.74067114 9.14998322,7.74067114 Z M12.0120792,7.74067114 C11.7537188,7.74067114 11.4953585,7.46496644 11.4953585,7.18926174 C11.4953585,6.91530201 11.7537188,6.63959732 12.0120792,6.63959732 C12.4029751,6.63959732 12.6630131,6.91530201 12.6630131,7.18926174 C12.6630131,7.46496644 12.3979421,7.74067114 12.0120792,7.74067114 Z M10.1549044,3.93315436 C10.3260262,3.93315436 10.4954703,3.94536913 10.6665921,3.96456376 C10.2085896,1.68738255 7.92193267,0 5.30980875,0 C2.39402751,0 0,2.11315436 0,4.80214765 C0,6.35342282 0.793535399,7.62899329 2.12224583,8.61838926 L1.59378146,10.3197315 L3.45095627,9.32510067 C4.11531149,9.46295302 4.65048652,9.60604027 5.30980875,9.60604027 C5.47421989,9.60604027 5.64030869,9.5990604 5.80471983,9.58161074 C5.69902695,9.20644295 5.64030869,8.80684564 5.64030869,8.39852349 C5.64030869,5.93463087 7.63337434,3.93315436 10.1549044,3.93315436 Z M7.2978414,2.40107383 C7.6971256,2.40107383 7.96219662,2.68201342 7.96219662,3.10778523 C7.96219662,3.53181208 7.6971256,3.81449664 7.2978414,3.81449664 C6.89855721,3.81449664 6.49927301,3.53355705 6.49927301,3.10778523 C6.50430601,2.68201342 6.9035902,2.40107383 7.2978414,2.40107383 L7.2978414,2.40107383 Z M3.58181411,3.81275168 C3.18252992,3.81275168 2.78324572,3.53181208 2.78324572,3.10604027 C2.78324572,2.68026846 3.18252992,2.39932886 3.58181411,2.39932886 C3.98277598,2.39932886 4.24616933,2.68026846 4.24616933,3.10604027 C4.24616933,3.52657718 3.98109831,3.81275168 3.58181411,3.81275168 Z" id="形状"></path>
                </g>
            </g>
        </g>
    </g>
</svg>
