<?xml version="1.0" encoding="UTF-8"?>
<svg width="16px" height="16px" viewBox="0 0 16 16" version="1.1" xmlns="http://www.w3.org/2000/svg" xmlns:xlink="http://www.w3.org/1999/xlink">
    <title>切片</title>
    <g id="页面-1" stroke="none" stroke-width="1" opacity="0.85">
        <g id="0-1-1后台样式备份" transform="translate(-24.000000, -80.000000)">
            <g id="common_ic_gaikuang_black" transform="translate(24.000000, 80.000000)">
                <rect id="矩形"  opacity="0" x="0" y="0" width="16" height="16"></rect>
                <g id="编组" transform="translate(0.680206, 1.500000)" >
                    <path d="M12.3197937,13.5 L2.31979369,13.5 C-0.53627336,10.5026667 -0.889929299,5.21066667 2.0150989,2.244 C4.94460768,-0.748000001 9.6948184,-0.748000001 12.6246536,2.244 C15.5296818,5.21066667 15.1758607,10.5026667 12.3197937,13.5 Z M2.10257616,5.33333333 C1.86592816,5.32786839 1.64492396,5.45365088 1.52499411,5.66205877 C1.40506427,5.87046666 1.405001,6.12884382 1.52482877,6.33731294 C1.64465653,6.54578205 1.8655991,6.6716774 2.10224975,6.66633333 C2.45701578,6.65832198 2.74054421,6.36237827 2.74063297,5.99999631 C2.74072168,5.63761435 2.45733822,5.34152587 2.10257616,5.33333333 Z M6.74751649,2.32872536 C6.62758659,2.5371333 6.62752332,2.79551054 6.74735115,3.0039797 C6.86717898,3.21244885 7.08812166,3.33834417 7.32477237,3.333 C7.67953829,3.32498848 7.96306655,3.02904482 7.96315532,2.66666298 C7.96324401,2.30428113 7.67986072,2.0081927 7.32509877,2 C7.0884507,1.99453497 6.86744639,2.12031743 6.74751649,2.32872536 Z M9.99903035,4.46433333 L5.84451361,7.293 C5.50854797,7.62855901 5.37508729,8.12261109 5.49506242,8.58661765 C5.61503754,9.05062422 5.96993632,9.41298912 6.42432341,9.53542782 C6.87871051,9.65786653 7.36247406,9.52148676 7.69100176,9.17833333 L10.4605708,4.93566667 C10.5218428,4.87320085 10.5562739,4.7884152 10.5562739,4.7 C10.5562739,4.6115848 10.5218428,4.52679914 10.4605708,4.46433333 C10.3331086,4.33420602 10.1264925,4.33420602 9.99903035,4.46433333 Z M12.296447,5.66205877 C12.1765172,5.87046666 12.1764539,6.12884382 12.2962816,6.33731294 C12.4161094,6.54578206 12.637052,6.6716774 12.8737026,6.66633333 C13.2284687,6.65832198 13.5119971,6.36237827 13.5120859,5.99999631 C13.5121746,5.63761435 13.2287911,5.34152587 12.874029,5.33333333 C12.637381,5.3278684 12.4163768,5.45365088 12.296447,5.66205877 Z" id="形状"></path>
                </g>
            </g>
        </g>
    </g>
</svg>
