<?xml version="1.0" encoding="UTF-8"?>
<svg width="16px" height="16px" viewBox="0 0 16 16" version="1.1" xmlns="http://www.w3.org/2000/svg" xmlns:xlink="http://www.w3.org/1999/xlink">
    <title>切片</title>
    <g id="页面-1" stroke="none" stroke-width="1" >
        <g id="0-1-1后台样式备份" transform="translate(-24.000000, -230.000000)">
            <g id="common_ic_yunying_blue" transform="translate(24.000000, 230.000000)">
                <rect id="矩形"  opacity="0" x="0" y="0" width="16" height="16"></rect>
                <g id="编组" transform="translate(1.000000, 1.000000)" >
                    <path d="M11.9216368,7.1149619 C11.4655461,7.31123846 11.0943233,7.4765001 10.6912751,7.6521303 C10.4685526,7.54882589 10.1927877,7.34221707 9.88519726,7.28024169 C8.80333582,7.07363287 7.76390837,7.99302215 7.80634235,9.05704487 C7.80634235,9.22232466 7.65784206,9.48057661 7.50934177,9.53223789 C6.94722203,9.7181822 6.69265543,10.1107172 6.66084859,10.6272392 C6.62902311,11.4329918 6.56539078,12.2697412 7.63662507,12.5796544 C7.72149303,12.600319 7.75329988,12.775931 7.80634235,12.8792354 C7.67905905,12.9412108 7.54116726,13.0651797 7.41388396,13.0651797 C5.98201676,13.075512 4.55014956,13.075512 3.11828236,13.075512 C2.4607048,13.075512 1.8031086,13.0858261 1.14549376,13.075512 C0.307590431,13.0548475 0,12.734602 0,11.9288494 L0,1.09241827 C0,0.338326938 0.29700058,0.0180814496 1.08186143,0.00774919269 C4.33803558,-0.00258306423 7.59420973,-0.00258306423 10.8503839,0.00774919269 C11.5398056,0.00774919269 11.9004198,0.338326938 11.9110283,1.07177191 C11.9428352,3.09649478 11.9216368,5.1315499 11.9216368,7.1149619 L11.9216368,7.1149619 Z M6.02445074,1.42299601 C6.02445074,1.41266375 6.02445074,1.41266375 6.02445074,1.42299601 C5.02745727,1.42299601 4.0304638,1.41266375 3.03345168,1.42299601 C2.54553548,1.42299601 2.14250588,1.80521688 2.15311437,2.21841637 C2.17433136,2.64196627 2.53494562,2.95186134 3.03345168,2.95186134 C4.97441479,2.95186134 6.90478805,2.95186134 8.84575116,2.94154724 C9.45032353,2.94154724 9.71549862,2.65228036 9.70487148,2.10479786 C9.69428163,1.68124796 9.3760827,1.43332827 8.84575116,1.43332827 C7.90180017,1.41266375 6.96842038,1.42297785 6.02445074,1.42297785 L6.02445074,1.42299601 Z M4.44412054,5.823684 C4.95323509,5.823684 5.462331,5.84433036 5.96083706,5.81333359 C6.3638853,5.79268723 6.67147573,5.57574615 6.71389107,5.15221441 C6.76693354,4.67700323 6.44873462,4.32579729 6.03507788,4.30511461 C4.97443344,4.25347149 3.90319914,4.32579729 2.8425547,4.3567759 C2.34404864,4.36712631 2.16372287,4.74932903 2.17435001,5.1315499 C2.1849585,5.57574615 2.51374728,5.823684 2.99103635,5.823684 L4.44412054,5.823684 L4.44412054,5.823684 Z" id="形状"></path>
                    <path d="M13.9792747,11.1024322 C14.0641241,11.4743209 13.8838169,11.701576 13.5232027,11.8462095 C12.876215,12.1044614 12.7064977,12.4040424 12.8443708,13.0548475 C12.9292388,13.4577147 12.6428653,13.6230127 12.3883174,13.7779602 C12.1231423,13.9329077 11.8579859,14.1498488 11.4867631,13.8502678 C10.9670587,13.4164038 10.5958173,13.4783792 9.97004657,13.8192892 C9.75791396,13.9329077 9.39729969,13.9225755 9.15336023,13.8399356 C8.85635966,13.7366312 8.54878787,13.5506869 8.64424568,13.1168229 C8.79272733,12.4453533 8.45333006,12.0114893 7.85936618,11.7842159 C7.4139026,11.608622 7.47753493,11.2470475 7.48814343,10.9681311 C7.49875192,10.7512081 7.67905905,10.4309627 7.86997468,10.3379905 C8.45333006,10.059074 8.7184865,9.84213296 8.66546267,8.93307594 C8.63363719,8.44755066 8.97303446,8.33393215 9.2594079,8.20996323 C9.45032353,8.11699107 9.81095643,8.09632656 9.95943808,8.20996323 C10.5003595,8.63349497 11.009474,8.61284861 11.5079801,8.22029548 C11.9746607,7.85873913 12.2398171,8.24096 12.579233,8.41657205 C12.9080218,8.58185184 12.8868048,8.80910702 12.8019555,9.10868799 C12.6746908,9.57354876 12.9504558,10.1004031 13.4277448,10.2450183 C13.8838169,10.3689873 14.0322986,10.6479037 13.9792747,11.1024322 L13.9792747,11.1024322 Z M9.35486571,10.9474666 C9.34427586,11.7842159 9.87458876,12.3317348 10.7231006,12.3420489 C11.4337393,12.3523993 12.0489015,11.825545 12.0701185,11.1954044 C12.0913355,10.3069937 11.5503954,9.7181822 10.6806852,9.68718543 C9.97004657,9.66652091 9.36547421,10.2346861 9.35486571,10.9474666 Z" id="形状"></path>
                </g>
            </g>
        </g>
    </g>
</svg>
