<?xml version="1.0" encoding="UTF-8"?>
<svg width="16px" height="16px" viewBox="0 0 16 16" version="1.1" xmlns="http://www.w3.org/2000/svg" xmlns:xlink="http://www.w3.org/1999/xlink">
    <title>切片</title>
    <g id="页面-1" stroke="none" stroke-width="1"  opacity="0.85">
        <g id="0-1-1后台样式备份" transform="translate(-24.000000, -380.000000)" >
            <g id="编组" transform="translate(24.000000, 380.000000)">
                <rect id="矩形"  opacity="0" x="0" y="0" width="16" height="16"></rect>
                <g transform="translate(1.000000, 1.000000)" >
                    <path d="M13.762047,9.90042429 L8.01184275,9.90042429 C7.88008363,9.90042429 7.77388971,9.74683788 7.77388971,9.5558394 L7.77388971,8.74655716 C7.77388971,8.55752774 7.88008363,8.40197227 8.01184275,8.40197227 L13.762047,8.40197227 C13.8938061,8.40197227 14,8.55752774 14,8.74655716 L14,9.5558394 C14,9.74486883 13.8957726,9.90042429 13.762047,9.90042429 Z M13.762047,11.9502121 L8.01184275,11.9502121 C7.88008363,11.9502121 7.77388971,11.7966257 7.77388971,11.6056273 L7.77388971,10.796345 C7.77388971,10.6053465 7.88008363,10.4517601 8.01184275,10.4517601 L13.762047,10.4517601 C13.8938061,10.4517601 14,10.6053465 14,10.796345 L14,11.6075963 C14,11.7966257 13.8957726,11.9502121 13.762047,11.9502121 Z M13.762047,14 L8.01184275,14 C7.88008363,14 7.77388971,13.8464136 7.77388971,13.6554151 L7.77388971,12.8441638 C7.77388971,12.6551344 7.88008363,12.4995789 8.01184275,12.4995789 L13.762047,12.4995789 C13.8938061,12.4995789 14,12.6531653 14,12.8441638 L14,13.6554151 C14,13.8464136 13.8957726,14 13.762047,14 Z M7.59493328,7.50014438 L8.61950797,7.50014438 C8.66473871,7.33671268 8.68833736,7.16934288 8.68833736,7.00000402 C8.68833736,6.45457536 8.45431743,5.93671349 8.04724073,5.57243803 C7.64016403,5.21013162 7.09936165,5.03685465 6.55659272,5.09986446 C5.67360992,5.20422446 4.97941632,5.89930141 4.87518896,6.78143874 C4.81422578,7.32292929 4.98531599,7.86441983 5.3491285,8.27201454 C5.712941,8.67960924 6.23014473,8.91195791 6.77684677,8.91195791 L6.77684677,8.31927189 C6.77684677,8.10267568 6.8614086,7.89198663 7.01479982,7.73840022 C7.16819104,7.58678286 7.37664578,7.50014438 7.59493328,7.50014438 Z" id="形状"></path>
                    <path d="M3.84668116,7 C3.84864771,5.3834086 5.15837275,4.07201695 6.77488022,4.07004789 C7.63819747,4.07201695 8.45825053,4.45401392 9.01281879,5.11561691 C9.5693536,5.77525085 9.8053401,6.64951195 9.65981509,7.50014438 L12.3579273,7.50014438 C12.3952919,7.10633307 12.3874256,6.7105527 12.3362952,6.32067951 L13.1563483,5.68467425 C13.5398263,5.43657313 13.6617527,4.9305256 13.4336324,4.53474523 L12.2379675,2.46329776 C12.0098472,2.06751739 11.5103425,1.91983815 11.1012993,2.12855815 L10.145554,2.5204004 C9.78174145,2.24670154 9.38646407,2.02026004 8.96758805,1.84304495 L8.82796271,0.817166494 C8.80633061,0.360345377 8.42875222,0 7.97251167,0 L5.57724877,0 C5.11904166,-0.00196102519 4.74146328,0.358376321 4.72179774,0.817166494 L4.58020584,1.84304495 C4.16132982,2.02026004 3.76605244,2.2486706 3.40223993,2.5204004 L2.44452808,2.12855815 C2.03745138,1.91983815 1.53794664,2.06751739 1.30982636,2.46329776 L0.114161469,4.53671429 C-0.113958807,4.93249465 0.0099341018,5.43854218 0.395378706,5.68467425 L1.21149866,6.32067951 C1.15446859,6.77159346 1.15446859,7.22841457 1.21149866,7.68129758 L0.393412152,8.31336472 C0.0079675477,8.56146585 -0.113958807,9.06751338 0.116128023,9.46329374 L1.31179292,11.5347412 C1.42781961,11.7316469 1.6126757,11.875388 1.83489631,11.9344597 C2.04138449,11.9895933 2.259672,11.9659646 2.44846119,11.8655427 L3.40617304,11.4737005 C3.76605244,11.7454303 4.16132982,11.9718718 4.58413895,12.1510559 L4.72573084,13.1789034 C4.74539639,13.6376936 5.12297477,13.9980309 5.58118188,13.9960699 L6.77684677,13.9960699 L6.77684677,9.92996014 C5.15640619,9.92602203 3.84668116,8.61659943 3.84668116,7 Z" id="路径"></path>
                </g>
            </g>
        </g>
    </g>
</svg>
