<?xml version="1.0" encoding="UTF-8"?>
<svg width="16px" height="16px" viewBox="0 0 16 16" version="1.1" xmlns="http://www.w3.org/2000/svg" xmlns:xlink="http://www.w3.org/1999/xlink">
    <title>切片</title>
    <g id="页面-1" stroke="none" stroke-width="1" >
        <g id="0-1-1后台样式备份" transform="translate(-24.000000, -180.000000)">
            <g id="common_ic_huiyuan" transform="translate(24.000000, 180.000000)">
                <g id="common_ic_moban_black" opacity="0.85"></g>
                <g id="编组" opacity="0.849999964" transform="translate(1.000000, 1.000000)" >
                    <path d="M2.4992,3.7472 C2.4992,5.8176 4.1792,7.4976 6.2496,7.4976 C8.32,7.4976 10,5.8176 10,3.7472 C10,1.6768 8.32,0 6.2496,0 C4.1792,0 2.4992,1.6768 2.4992,3.7472 Z" id="路径" ></path>
                    <path d="M2.4992,3.7472 C2.4992,5.8176 4.1792,7.4976 6.2496,7.4976 C8.32,7.4976 10,5.8176 10,3.7472 C10,1.6768 8.32,0 6.2496,0 C4.1792,0 2.4992,1.6768 2.4992,3.7472 Z" id="路径" ></path>
                    <path d="M6.2496,10.4992 C6.2496,9.6 6.5344,8.7232 7.0656,8 L4.4992,8 C2.0128,8 0,10.016 0,12.4992 L0,12.9984 C0,13.552 0.448,14 1.0016,14 L8.0928,14 C6.9376,13.2064 6.2496,11.8976 6.2496,10.4992 Z" id="路径" ></path>
                    <path d="M6.2496,10.4992 C6.2496,9.6 6.5344,8.7232 7.0656,8 L4.7488,8 C1.4976,8 0,10.016 0,12.4992 L0,12.9984 C0,13.552 0.448,14 1.0016,14 L8.0928,14 C6.9376,13.2064 6.2496,11.8976 6.2496,10.4992 Z" id="路径" ></path>
                    <path d="M10.4992,6.9984 C8.5664,6.9984 6.9984,8.5664 6.9984,10.4992 C6.9984,12.432 8.5664,14 10.4992,14 C12.432,14 14,12.432 14,10.4992 C14,8.5664 12.432,6.9984 10.4992,6.9984 Z M12.1344,9.2544 C12.096,9.4624 12.0384,9.6704 11.9648,9.8688 C11.8784,10.1152 11.776,10.3552 11.6512,10.5856 C11.5168,10.8288 11.3728,11.0656 11.2128,11.296 C11.0368,11.5456 10.8992,11.7344 10.8,11.8496 L10.496,12.2048 L9.9072,12.1408 C9.888,11.9232 9.8656,11.7248 9.8464,11.552 C9.824,11.3536 9.7888,11.1552 9.744,10.9632 C9.6992,10.7712 9.6416,10.5792 9.5712,10.3968 C9.5008,10.2208 9.4176,10.048 9.3216,9.8848 C9.2512,9.7504 9.1584,9.6256 9.0496,9.5168 L8.816,9.3184 L9.8848,8.7872 C9.968,9.0944 10.032,9.3536 10.0832,9.5616 C10.1344,9.7696 10.1792,10.0192 10.2176,10.3104 C10.2592,10.6016 10.2816,10.8416 10.2912,11.0432 L10.3136,11.712 C10.4768,11.488 10.6048,11.296 10.7008,11.136 C10.7968,10.9792 10.8736,10.8128 10.9312,10.6368 C10.992,10.4224 11.0368,10.2048 11.0592,9.9808 C11.0848,9.808 11.0848,9.6288 11.0592,9.456 L10.9952,9.088 L12.1888,8.8128 C12.176,8.96 12.1568,9.1072 12.1344,9.2544 L12.1344,9.2544 Z" id="形状" ></path>
                </g>
            </g>
        </g>
    </g>
</svg>
