<?xml version="1.0" encoding="UTF-8"?>
<svg width="16px" height="16px" viewBox="0 0 16 16" version="1.1" xmlns="http://www.w3.org/2000/svg" xmlns:xlink="http://www.w3.org/1999/xlink">
    <title>切片</title>
    <g id="页面-1" stroke="none" stroke-width="1" opacity="0.85">
        <g id="0-1-1后台样式备份" transform="translate(-24.000000, -480.000000)" >
            <g id="common_ic_xitongxiaoxi_black" transform="translate(24.000000, 480.000000)">
                <rect id="矩形"  opacity="0" x="0" y="0" width="16" height="16"></rect>
                <g id="编组" transform="translate(1.000000, 1.000000)" >
                    <path d="M12.2500196,1.73330441 L9.62503324,1.73330441 L9.62503324,0.866667699 C9.62503324,0.388235897 9.2330465,0 8.75005865,0 L5.25005083,0 C4.76660939,0 4.37501369,0.388235897 4.37501369,0.866683192 L4.37501369,1.73330441 L1.75001173,1.73330441 C0.783566798,1.73330441 0,2.50941989 0,3.46668629 L0,5.62955994 L14,5.62955994 L14,3.46668629 C14,2.50940439 13.2164958,1.73330441 12.2500196,1.73330441 Z M8.7500743,1.73330441 L5.25003519,1.73330441 L5.25003519,1.29998606 C5.25003519,1.0608786 5.44572356,0.866667699 5.6874912,0.866667699 L8.31252444,0.866667699 C8.55415131,0.866667699 8.7500743,1.0608786 8.7500743,1.29998606 L8.7500743,1.73330441 Z M6.99957768,7.7999938 C7.48254989,7.7999938 7.87453663,7.41152552 7.87453663,6.93331061 C7.87453663,6.77462345 7.82864504,6.62823714 7.75339472,6.49999225 L6.24633938,6.49999225 C6.17085444,6.62823714 6.12500978,6.77462345 6.12500978,6.93331061 C6.12500978,7.41152552 6.51615188,7.8000093 6.99957768,7.8000093 L6.99957768,7.7999938 Z" id="形状"></path>
                    <path d="M8.68738395,6.49999225 C8.72410973,6.63895778 8.75002737,6.78241605 8.75002737,6.93331061 C8.75002737,7.89051505 7.96646057,8.66663052 6.99996872,8.66663052 C6.03353943,8.66663052 5.24998827,7.89051505 5.24998827,6.93331061 C5.24998827,6.78241605 5.27542103,6.63895778 5.31167757,6.49999225 L0,6.49999225 L0,12.2665716 C0,13.2238381 0.783566798,13.9999923 1.75001173,13.9999923 L12.2500196,13.9999923 C13.2165114,13.9999923 14,13.2238071 14,12.2665716 L14,6.49999225 L8.68738395,6.49999225 Z" id="路径"></path>
                </g>
            </g>
        </g>
    </g>
</svg>
