<?xml version="1.0" encoding="UTF-8"?>
<svg width="16px" height="16px" viewBox="0 0 16 16" version="1.1" xmlns="http://www.w3.org/2000/svg" xmlns:xlink="http://www.w3.org/1999/xlink">
    <title>切片</title>
    <g id="页面-1" stroke="none" stroke-width="1" opacity="0.85">
        <g id="0-1-1后台样式备份" transform="translate(-24.000000, -330.000000)">
            <g id="common_ic_shequ_black" transform="translate(24.000000, 330.000000)">
                <rect id="矩形" opacity="0" x="0" y="0" width="16" height="16"></rect>
                <g id="编组" transform="translate(1.000000, 1.500000)" >
                    <path d="M13.3084354,9.46619425 C13.2664353,9.2978848 13.181035,9.12957535 13.0956348,8.96057329 L13.4785358,8.58239651 C13.5632361,8.49858809 13.5632361,8.41408706 13.4785358,8.33027865 L12.8408341,7.69929139 C12.798834,7.65704086 12.7554339,7.65704086 12.7134338,7.65704086 C12.6707337,7.65704086 12.6280336,7.65704086 12.5853334,7.69859875 L12.2031324,8.07746817 C12.033032,7.99365975 11.8629315,7.90915872 11.6921311,7.86760083 L11.6921311,7.32042197 C11.6860656,7.23033294 11.6137525,7.15848557 11.5227306,7.15211252 L10.6295283,7.15211252 C10.5382332,7.15815453 10.4655341,7.23008814 10.4594278,7.32042197 L10.4594278,7.86760083 C10.2893274,7.90915872 10.1192269,7.99365975 9.94912645,8.07746817 L9.56692543,7.69929139 C9.52422532,7.65704086 9.48152521,7.65704086 9.43952508,7.65704086 C9.39682497,7.65704086 9.35412486,7.65704086 9.31142474,7.69859875 L8.67442306,8.33027865 C8.58902284,8.41408706 8.58902284,8.49858809 8.67442306,8.58239651 L9.05662408,8.96126591 C8.97122386,9.12957535 8.88652363,9.2978848 8.84382351,9.46619425 L8.29082203,9.46619425 C8.19980015,9.4725673 8.12748706,9.54441467 8.12142159,9.63450369 L8.12142159,10.5176088 C8.12142159,10.6021098 8.20612182,10.6859183 8.29152204,10.6859183 L8.84452351,10.6859183 C8.88652363,10.8542277 8.97122386,11.0225372 9.05662408,11.1915392 L8.67372306,11.569716 C8.58902282,11.6535244 8.58902282,11.7380255 8.67372306,11.8218339 L9.31142474,12.4528211 C9.35412486,12.4950717 9.39682497,12.4950717 9.43952508,12.4950717 C9.4815252,12.4950717 9.52422532,12.4950717 9.56692543,12.4535138 L9.94912645,12.0746444 C10.1192269,12.1584528 10.2893274,12.2429538 10.4601278,12.2845117 L10.4601278,12.8316906 C10.4601278,12.9161916 10.544128,13 10.6295283,13 L11.4800305,13 C11.5713256,12.993958 11.6440247,12.9220244 11.650131,12.8316906 L11.650131,12.2845117 C11.8202314,12.2429538 11.9903319,12.1584528 12.1604323,12.0746444 L12.5433333,12.4528211 C12.5853334,12.4950717 12.6280336,12.4950717 12.6707337,12.4950717 C12.7127338,12.4950717 12.7554339,12.4950717 12.798134,12.4535138 L13.4358357,11.8218339 C13.5212359,11.7380255 13.5212359,11.6535244 13.4358357,11.569716 L13.0536347,11.1908466 C13.1383349,11.0225372 13.2237351,10.8542277 13.2657353,10.6859183 L13.8187367,10.6859183 C13.9100318,10.6798763 13.9827309,10.6079426 13.9888372,10.5176088 L13.9888372,9.67606158 C14.0308373,9.55000266 13.9468371,9.46619425 13.8614368,9.46619425 L13.3084354,9.46619425 Z M10.7996287,6.52112526 C11.3526302,6.52112526 11.9056316,6.56268315 12.3732329,6.68943471 L12.0526862,0.944292259 C12.0231253,0.414474511 11.5848809,-9.74773121e-17 11.0542391,0 L1.92603114,0 C1.40349483,9.59883626e-17 0.969053359,0.402306331 0.928976654,0.923303501 L0.165645615,10.846607 C0.0809290018,11.947923 0.905045614,12.9093924 2.00636159,12.994109 C2.05739836,12.9980349 2.10856704,13 2.15975459,13 L8.37622846,13 L8.37622846,13 C7.75228935,11.6530627 7.44031978,10.5730193 7.44031977,9.75986999 C7.44101978,7.99365975 8.80112339,6.52112526 10.7996287,6.52112526 Z M3.18920849,2.27183122 C3.44400917,2.27183122 3.65680972,2.48239119 3.65680972,2.73450903 C3.65531905,3.46019708 3.94600527,4.15658748 4.46460567,4.66972748 C4.98320607,5.18286748 5.68700686,5.47049304 6.42041707,5.46901806 C7.15382728,5.47049304 7.85762806,5.18286748 8.37622846,4.66972748 C8.89482886,4.15658748 9.18551509,3.46019708 9.18402441,2.73450903 C9.18402441,2.48239117 9.39682498,2.27183122 9.65162565,2.27183122 C9.90712632,2.27183122 10.1192269,2.48239119 10.1192269,2.73450903 C10.1192269,4.71197186 8.4609225,6.35281582 6.46311719,6.31056529 C4.37921164,6.31056529 2.72090724,4.71197186 2.72090724,2.73450903 C2.72090724,2.48239117 2.93370781,2.27183122 3.18920849,2.27183122 Z" id="形状" ></path>
                    <path d="M11.0551294,9.00351643 C10.4174277,9.00351643 9.94912645,9.50844477 9.94912645,10.0971815 C9.94912645,10.6859183 10.4601278,11.1915392 11.0551294,11.1915392 C11.650131,11.1915392 12.1604323,10.6859183 12.1604323,10.0971815 C12.1604323,9.50844477 11.6928311,9.0028238 11.0544294,9.0028238 L11.0551294,9.00351643 Z" id="路径" ></path>
                    <path d="M11.0551294,10.5176088 C10.8205087,10.5172289 10.6302985,10.329331 10.6295283,10.0971815 C10.6295283,9.88662155 10.7996287,9.67606158 11.0551294,9.67606158 C11.2672299,9.67606158 11.4800305,9.84437103 11.4800305,10.0971815 C11.4800305,10.3077415 11.2672299,10.5176088 11.0551294,10.5176088 L11.0551294,10.5176088 Z" id="路径" ></path>
                </g>
            </g>
        </g>
    </g>
</svg>
